G04 #@! TF.FileFunction,Copper,L2,Bot,Signal*
%FSLAX46Y46*%
G04 Gerber Fmt 4.6, Leading zero omitted, Abs format (unit mm)*
G04 Created by KiCad (PCBNEW 4.0.2-4+6225~38~ubuntu15.10.1-stable) date Sun 24 Apr 2016 11:14:38 PM EDT*
%MOMM*%
G01*
G04 APERTURE LIST*
%ADD10C,0.100000*%
%ADD11C,1.524000*%
%ADD12R,2.032000X2.032000*%
%ADD13O,2.032000X2.032000*%
%ADD14C,0.750000*%
%ADD15C,0.025400*%
G04 APERTURE END LIST*
D10*
D11*
X111905000Y-97222500D03*
X121905000Y-97222500D03*
X131905000Y-97222500D03*
X141905000Y-97222500D03*
X151905000Y-97222500D03*
X171905000Y-97222500D03*
X161905000Y-97222500D03*
X191905000Y-97222500D03*
X181905000Y-97222500D03*
X101905000Y-97222500D03*
D12*
X93000000Y-93730000D03*
D13*
X93000000Y-96270000D03*
D12*
X197000000Y-93730000D03*
D13*
X197000000Y-96270000D03*
D14*
X191905000Y-97222500D02*
X196047500Y-97222500D01*
X196047500Y-97222500D02*
X197000000Y-96270000D01*
X181905000Y-97222500D02*
X191905000Y-97222500D01*
X171905000Y-97222500D02*
X181905000Y-97222500D01*
X161905000Y-97222500D02*
X171905000Y-97222500D01*
X151905000Y-97222500D02*
X161905000Y-97222500D01*
X141905000Y-97222500D02*
X151905000Y-97222500D01*
X131905000Y-97222500D02*
X141905000Y-97222500D01*
X121905000Y-97222500D02*
X131905000Y-97222500D01*
X111905000Y-97222500D02*
X121905000Y-97222500D01*
X101905000Y-97222500D02*
X111905000Y-97222500D01*
X101905000Y-97222500D02*
X93952500Y-97222500D01*
X93952500Y-97222500D02*
X93000000Y-96270000D01*
D15*
G36*
X197987300Y-92497133D02*
X195984000Y-92497133D01*
X195905178Y-92511964D01*
X195832785Y-92558548D01*
X195784219Y-92629627D01*
X195767133Y-92714000D01*
X195767133Y-94746000D01*
X195781964Y-94824822D01*
X195828548Y-94897215D01*
X195899627Y-94945781D01*
X195984000Y-94962867D01*
X196223771Y-94962867D01*
X195832065Y-95271285D01*
X195538777Y-95794257D01*
X195612520Y-96028700D01*
X196758700Y-96028700D01*
X196758700Y-96008700D01*
X197241300Y-96008700D01*
X197241300Y-96028700D01*
X197261300Y-96028700D01*
X197261300Y-96511300D01*
X197241300Y-96511300D01*
X197241300Y-97655672D01*
X197475740Y-97731205D01*
X197696840Y-97639642D01*
X197987300Y-97410942D01*
X197987300Y-97987300D01*
X192989399Y-97987300D01*
X193000226Y-97976473D01*
X192890687Y-97866934D01*
X193086724Y-97782810D01*
X193211192Y-97287933D01*
X193136804Y-96783094D01*
X193121333Y-96745743D01*
X195538777Y-96745743D01*
X195832065Y-97268715D01*
X196303160Y-97639642D01*
X196524260Y-97731205D01*
X196758700Y-97655672D01*
X196758700Y-96511300D01*
X195612520Y-96511300D01*
X195538777Y-96745743D01*
X193121333Y-96745743D01*
X193086724Y-96662190D01*
X192890685Y-96578065D01*
X192246250Y-97222500D01*
X192260392Y-97236642D01*
X191919142Y-97577892D01*
X191905000Y-97563750D01*
X191890858Y-97577892D01*
X191549608Y-97236642D01*
X191563750Y-97222500D01*
X190919315Y-96578065D01*
X190723276Y-96662190D01*
X190598808Y-97157067D01*
X190673196Y-97661906D01*
X190723276Y-97782810D01*
X190919313Y-97866934D01*
X190809774Y-97976473D01*
X190820601Y-97987300D01*
X182989399Y-97987300D01*
X183000226Y-97976473D01*
X182890687Y-97866934D01*
X183086724Y-97782810D01*
X183211192Y-97287933D01*
X183136804Y-96783094D01*
X183086724Y-96662190D01*
X182890685Y-96578065D01*
X182246250Y-97222500D01*
X182260392Y-97236642D01*
X181919142Y-97577892D01*
X181905000Y-97563750D01*
X181890858Y-97577892D01*
X181549608Y-97236642D01*
X181563750Y-97222500D01*
X180919315Y-96578065D01*
X180723276Y-96662190D01*
X180598808Y-97157067D01*
X180673196Y-97661906D01*
X180723276Y-97782810D01*
X180919313Y-97866934D01*
X180809774Y-97976473D01*
X180820601Y-97987300D01*
X172989399Y-97987300D01*
X173000226Y-97976473D01*
X172890687Y-97866934D01*
X173086724Y-97782810D01*
X173211192Y-97287933D01*
X173136804Y-96783094D01*
X173086724Y-96662190D01*
X172890685Y-96578065D01*
X172246250Y-97222500D01*
X172260392Y-97236642D01*
X171919142Y-97577892D01*
X171905000Y-97563750D01*
X171890858Y-97577892D01*
X171549608Y-97236642D01*
X171563750Y-97222500D01*
X170919315Y-96578065D01*
X170723276Y-96662190D01*
X170598808Y-97157067D01*
X170673196Y-97661906D01*
X170723276Y-97782810D01*
X170919313Y-97866934D01*
X170809774Y-97976473D01*
X170820601Y-97987300D01*
X162989399Y-97987300D01*
X163000226Y-97976473D01*
X162890687Y-97866934D01*
X163086724Y-97782810D01*
X163211192Y-97287933D01*
X163136804Y-96783094D01*
X163086724Y-96662190D01*
X162890685Y-96578065D01*
X162246250Y-97222500D01*
X162260392Y-97236642D01*
X161919142Y-97577892D01*
X161905000Y-97563750D01*
X161890858Y-97577892D01*
X161549608Y-97236642D01*
X161563750Y-97222500D01*
X160919315Y-96578065D01*
X160723276Y-96662190D01*
X160598808Y-97157067D01*
X160673196Y-97661906D01*
X160723276Y-97782810D01*
X160919313Y-97866934D01*
X160809774Y-97976473D01*
X160820601Y-97987300D01*
X152989399Y-97987300D01*
X153000226Y-97976473D01*
X152890687Y-97866934D01*
X153086724Y-97782810D01*
X153211192Y-97287933D01*
X153136804Y-96783094D01*
X153086724Y-96662190D01*
X152890685Y-96578065D01*
X152246250Y-97222500D01*
X152260392Y-97236642D01*
X151919142Y-97577892D01*
X151905000Y-97563750D01*
X151890858Y-97577892D01*
X151549608Y-97236642D01*
X151563750Y-97222500D01*
X150919315Y-96578065D01*
X150723276Y-96662190D01*
X150598808Y-97157067D01*
X150673196Y-97661906D01*
X150723276Y-97782810D01*
X150919313Y-97866934D01*
X150809774Y-97976473D01*
X150820601Y-97987300D01*
X142989399Y-97987300D01*
X143000226Y-97976473D01*
X142890687Y-97866934D01*
X143086724Y-97782810D01*
X143211192Y-97287933D01*
X143136804Y-96783094D01*
X143086724Y-96662190D01*
X142890685Y-96578065D01*
X142246250Y-97222500D01*
X142260392Y-97236642D01*
X141919142Y-97577892D01*
X141905000Y-97563750D01*
X141890858Y-97577892D01*
X141549608Y-97236642D01*
X141563750Y-97222500D01*
X140919315Y-96578065D01*
X140723276Y-96662190D01*
X140598808Y-97157067D01*
X140673196Y-97661906D01*
X140723276Y-97782810D01*
X140919313Y-97866934D01*
X140809774Y-97976473D01*
X140820601Y-97987300D01*
X132989399Y-97987300D01*
X133000226Y-97976473D01*
X132890687Y-97866934D01*
X133086724Y-97782810D01*
X133211192Y-97287933D01*
X133136804Y-96783094D01*
X133086724Y-96662190D01*
X132890685Y-96578065D01*
X132246250Y-97222500D01*
X132260392Y-97236642D01*
X131919142Y-97577892D01*
X131905000Y-97563750D01*
X131890858Y-97577892D01*
X131549608Y-97236642D01*
X131563750Y-97222500D01*
X130919315Y-96578065D01*
X130723276Y-96662190D01*
X130598808Y-97157067D01*
X130673196Y-97661906D01*
X130723276Y-97782810D01*
X130919313Y-97866934D01*
X130809774Y-97976473D01*
X130820601Y-97987300D01*
X122989399Y-97987300D01*
X123000226Y-97976473D01*
X122890687Y-97866934D01*
X123086724Y-97782810D01*
X123211192Y-97287933D01*
X123136804Y-96783094D01*
X123086724Y-96662190D01*
X122890685Y-96578065D01*
X122246250Y-97222500D01*
X122260392Y-97236642D01*
X121919142Y-97577892D01*
X121905000Y-97563750D01*
X121890858Y-97577892D01*
X121549608Y-97236642D01*
X121563750Y-97222500D01*
X120919315Y-96578065D01*
X120723276Y-96662190D01*
X120598808Y-97157067D01*
X120673196Y-97661906D01*
X120723276Y-97782810D01*
X120919313Y-97866934D01*
X120809774Y-97976473D01*
X120820601Y-97987300D01*
X112989399Y-97987300D01*
X113000226Y-97976473D01*
X112890687Y-97866934D01*
X113086724Y-97782810D01*
X113211192Y-97287933D01*
X113136804Y-96783094D01*
X113086724Y-96662190D01*
X112890685Y-96578065D01*
X112246250Y-97222500D01*
X112260392Y-97236642D01*
X111919142Y-97577892D01*
X111905000Y-97563750D01*
X111890858Y-97577892D01*
X111549608Y-97236642D01*
X111563750Y-97222500D01*
X110919315Y-96578065D01*
X110723276Y-96662190D01*
X110598808Y-97157067D01*
X110673196Y-97661906D01*
X110723276Y-97782810D01*
X110919313Y-97866934D01*
X110809774Y-97976473D01*
X110820601Y-97987300D01*
X102989399Y-97987300D01*
X103000226Y-97976473D01*
X102890687Y-97866934D01*
X103086724Y-97782810D01*
X103211192Y-97287933D01*
X103136804Y-96783094D01*
X103086724Y-96662190D01*
X102890685Y-96578065D01*
X102246250Y-97222500D01*
X102260392Y-97236642D01*
X101919142Y-97577892D01*
X101905000Y-97563750D01*
X101890858Y-97577892D01*
X101549608Y-97236642D01*
X101563750Y-97222500D01*
X100919315Y-96578065D01*
X100723276Y-96662190D01*
X100598808Y-97157067D01*
X100673196Y-97661906D01*
X100723276Y-97782810D01*
X100919313Y-97866934D01*
X100809774Y-97976473D01*
X100820601Y-97987300D01*
X92012700Y-97987300D01*
X92012700Y-97410942D01*
X92303160Y-97639642D01*
X92524260Y-97731205D01*
X92758700Y-97655672D01*
X92758700Y-96511300D01*
X93241300Y-96511300D01*
X93241300Y-97655672D01*
X93475740Y-97731205D01*
X93696840Y-97639642D01*
X94167935Y-97268715D01*
X94461223Y-96745743D01*
X94387480Y-96511300D01*
X93241300Y-96511300D01*
X92758700Y-96511300D01*
X92738700Y-96511300D01*
X92738700Y-96236815D01*
X101260565Y-96236815D01*
X101905000Y-96881250D01*
X102549435Y-96236815D01*
X111260565Y-96236815D01*
X111905000Y-96881250D01*
X112549435Y-96236815D01*
X121260565Y-96236815D01*
X121905000Y-96881250D01*
X122549435Y-96236815D01*
X131260565Y-96236815D01*
X131905000Y-96881250D01*
X132549435Y-96236815D01*
X141260565Y-96236815D01*
X141905000Y-96881250D01*
X142549435Y-96236815D01*
X151260565Y-96236815D01*
X151905000Y-96881250D01*
X152549435Y-96236815D01*
X161260565Y-96236815D01*
X161905000Y-96881250D01*
X162549435Y-96236815D01*
X171260565Y-96236815D01*
X171905000Y-96881250D01*
X172549435Y-96236815D01*
X181260565Y-96236815D01*
X181905000Y-96881250D01*
X182549435Y-96236815D01*
X191260565Y-96236815D01*
X191905000Y-96881250D01*
X192549435Y-96236815D01*
X192465310Y-96040776D01*
X191970433Y-95916308D01*
X191465594Y-95990696D01*
X191344690Y-96040776D01*
X191260565Y-96236815D01*
X182549435Y-96236815D01*
X182465310Y-96040776D01*
X181970433Y-95916308D01*
X181465594Y-95990696D01*
X181344690Y-96040776D01*
X181260565Y-96236815D01*
X172549435Y-96236815D01*
X172465310Y-96040776D01*
X171970433Y-95916308D01*
X171465594Y-95990696D01*
X171344690Y-96040776D01*
X171260565Y-96236815D01*
X162549435Y-96236815D01*
X162465310Y-96040776D01*
X161970433Y-95916308D01*
X161465594Y-95990696D01*
X161344690Y-96040776D01*
X161260565Y-96236815D01*
X152549435Y-96236815D01*
X152465310Y-96040776D01*
X151970433Y-95916308D01*
X151465594Y-95990696D01*
X151344690Y-96040776D01*
X151260565Y-96236815D01*
X142549435Y-96236815D01*
X142465310Y-96040776D01*
X141970433Y-95916308D01*
X141465594Y-95990696D01*
X141344690Y-96040776D01*
X141260565Y-96236815D01*
X132549435Y-96236815D01*
X132465310Y-96040776D01*
X131970433Y-95916308D01*
X131465594Y-95990696D01*
X131344690Y-96040776D01*
X131260565Y-96236815D01*
X122549435Y-96236815D01*
X122465310Y-96040776D01*
X121970433Y-95916308D01*
X121465594Y-95990696D01*
X121344690Y-96040776D01*
X121260565Y-96236815D01*
X112549435Y-96236815D01*
X112465310Y-96040776D01*
X111970433Y-95916308D01*
X111465594Y-95990696D01*
X111344690Y-96040776D01*
X111260565Y-96236815D01*
X102549435Y-96236815D01*
X102465310Y-96040776D01*
X101970433Y-95916308D01*
X101465594Y-95990696D01*
X101344690Y-96040776D01*
X101260565Y-96236815D01*
X92738700Y-96236815D01*
X92738700Y-96028700D01*
X92758700Y-96028700D01*
X92758700Y-96008700D01*
X93241300Y-96008700D01*
X93241300Y-96028700D01*
X94387480Y-96028700D01*
X94461223Y-95794257D01*
X94167935Y-95271285D01*
X93823390Y-95000000D01*
X103912300Y-95000000D01*
X103995096Y-95416245D01*
X104230880Y-95769120D01*
X104583755Y-96004904D01*
X105000000Y-96087700D01*
X105416245Y-96004904D01*
X105769120Y-95769120D01*
X106004904Y-95416245D01*
X106087700Y-95000000D01*
X143912300Y-95000000D01*
X143995096Y-95416245D01*
X144230880Y-95769120D01*
X144583755Y-96004904D01*
X145000000Y-96087700D01*
X145416245Y-96004904D01*
X145769120Y-95769120D01*
X146004904Y-95416245D01*
X146087700Y-95000000D01*
X183912300Y-95000000D01*
X183995096Y-95416245D01*
X184230880Y-95769120D01*
X184583755Y-96004904D01*
X185000000Y-96087700D01*
X185416245Y-96004904D01*
X185769120Y-95769120D01*
X186004904Y-95416245D01*
X186087700Y-95000000D01*
X186004904Y-94583755D01*
X185769120Y-94230880D01*
X185416245Y-93995096D01*
X185000000Y-93912300D01*
X184583755Y-93995096D01*
X184230880Y-94230880D01*
X183995096Y-94583755D01*
X183912300Y-95000000D01*
X146087700Y-95000000D01*
X146004904Y-94583755D01*
X145769120Y-94230880D01*
X145416245Y-93995096D01*
X145000000Y-93912300D01*
X144583755Y-93995096D01*
X144230880Y-94230880D01*
X143995096Y-94583755D01*
X143912300Y-95000000D01*
X106087700Y-95000000D01*
X106004904Y-94583755D01*
X105769120Y-94230880D01*
X105416245Y-93995096D01*
X105000000Y-93912300D01*
X104583755Y-93995096D01*
X104230880Y-94230880D01*
X103995096Y-94583755D01*
X103912300Y-95000000D01*
X93823390Y-95000000D01*
X93776229Y-94962867D01*
X94016000Y-94962867D01*
X94094822Y-94948036D01*
X94167215Y-94901452D01*
X94215781Y-94830373D01*
X94232867Y-94746000D01*
X94232867Y-92714000D01*
X94218036Y-92635178D01*
X94171452Y-92562785D01*
X94100373Y-92514219D01*
X94016000Y-92497133D01*
X92012700Y-92497133D01*
X92012700Y-91012700D01*
X197987300Y-91012700D01*
X197987300Y-92497133D01*
X197987300Y-92497133D01*
G37*
X197987300Y-92497133D02*
X195984000Y-92497133D01*
X195905178Y-92511964D01*
X195832785Y-92558548D01*
X195784219Y-92629627D01*
X195767133Y-92714000D01*
X195767133Y-94746000D01*
X195781964Y-94824822D01*
X195828548Y-94897215D01*
X195899627Y-94945781D01*
X195984000Y-94962867D01*
X196223771Y-94962867D01*
X195832065Y-95271285D01*
X195538777Y-95794257D01*
X195612520Y-96028700D01*
X196758700Y-96028700D01*
X196758700Y-96008700D01*
X197241300Y-96008700D01*
X197241300Y-96028700D01*
X197261300Y-96028700D01*
X197261300Y-96511300D01*
X197241300Y-96511300D01*
X197241300Y-97655672D01*
X197475740Y-97731205D01*
X197696840Y-97639642D01*
X197987300Y-97410942D01*
X197987300Y-97987300D01*
X192989399Y-97987300D01*
X193000226Y-97976473D01*
X192890687Y-97866934D01*
X193086724Y-97782810D01*
X193211192Y-97287933D01*
X193136804Y-96783094D01*
X193121333Y-96745743D01*
X195538777Y-96745743D01*
X195832065Y-97268715D01*
X196303160Y-97639642D01*
X196524260Y-97731205D01*
X196758700Y-97655672D01*
X196758700Y-96511300D01*
X195612520Y-96511300D01*
X195538777Y-96745743D01*
X193121333Y-96745743D01*
X193086724Y-96662190D01*
X192890685Y-96578065D01*
X192246250Y-97222500D01*
X192260392Y-97236642D01*
X191919142Y-97577892D01*
X191905000Y-97563750D01*
X191890858Y-97577892D01*
X191549608Y-97236642D01*
X191563750Y-97222500D01*
X190919315Y-96578065D01*
X190723276Y-96662190D01*
X190598808Y-97157067D01*
X190673196Y-97661906D01*
X190723276Y-97782810D01*
X190919313Y-97866934D01*
X190809774Y-97976473D01*
X190820601Y-97987300D01*
X182989399Y-97987300D01*
X183000226Y-97976473D01*
X182890687Y-97866934D01*
X183086724Y-97782810D01*
X183211192Y-97287933D01*
X183136804Y-96783094D01*
X183086724Y-96662190D01*
X182890685Y-96578065D01*
X182246250Y-97222500D01*
X182260392Y-97236642D01*
X181919142Y-97577892D01*
X181905000Y-97563750D01*
X181890858Y-97577892D01*
X181549608Y-97236642D01*
X181563750Y-97222500D01*
X180919315Y-96578065D01*
X180723276Y-96662190D01*
X180598808Y-97157067D01*
X180673196Y-97661906D01*
X180723276Y-97782810D01*
X180919313Y-97866934D01*
X180809774Y-97976473D01*
X180820601Y-97987300D01*
X172989399Y-97987300D01*
X173000226Y-97976473D01*
X172890687Y-97866934D01*
X173086724Y-97782810D01*
X173211192Y-97287933D01*
X173136804Y-96783094D01*
X173086724Y-96662190D01*
X172890685Y-96578065D01*
X172246250Y-97222500D01*
X172260392Y-97236642D01*
X171919142Y-97577892D01*
X171905000Y-97563750D01*
X171890858Y-97577892D01*
X171549608Y-97236642D01*
X171563750Y-97222500D01*
X170919315Y-96578065D01*
X170723276Y-96662190D01*
X170598808Y-97157067D01*
X170673196Y-97661906D01*
X170723276Y-97782810D01*
X170919313Y-97866934D01*
X170809774Y-97976473D01*
X170820601Y-97987300D01*
X162989399Y-97987300D01*
X163000226Y-97976473D01*
X162890687Y-97866934D01*
X163086724Y-97782810D01*
X163211192Y-97287933D01*
X163136804Y-96783094D01*
X163086724Y-96662190D01*
X162890685Y-96578065D01*
X162246250Y-97222500D01*
X162260392Y-97236642D01*
X161919142Y-97577892D01*
X161905000Y-97563750D01*
X161890858Y-97577892D01*
X161549608Y-97236642D01*
X161563750Y-97222500D01*
X160919315Y-96578065D01*
X160723276Y-96662190D01*
X160598808Y-97157067D01*
X160673196Y-97661906D01*
X160723276Y-97782810D01*
X160919313Y-97866934D01*
X160809774Y-97976473D01*
X160820601Y-97987300D01*
X152989399Y-97987300D01*
X153000226Y-97976473D01*
X152890687Y-97866934D01*
X153086724Y-97782810D01*
X153211192Y-97287933D01*
X153136804Y-96783094D01*
X153086724Y-96662190D01*
X152890685Y-96578065D01*
X152246250Y-97222500D01*
X152260392Y-97236642D01*
X151919142Y-97577892D01*
X151905000Y-97563750D01*
X151890858Y-97577892D01*
X151549608Y-97236642D01*
X151563750Y-97222500D01*
X150919315Y-96578065D01*
X150723276Y-96662190D01*
X150598808Y-97157067D01*
X150673196Y-97661906D01*
X150723276Y-97782810D01*
X150919313Y-97866934D01*
X150809774Y-97976473D01*
X150820601Y-97987300D01*
X142989399Y-97987300D01*
X143000226Y-97976473D01*
X142890687Y-97866934D01*
X143086724Y-97782810D01*
X143211192Y-97287933D01*
X143136804Y-96783094D01*
X143086724Y-96662190D01*
X142890685Y-96578065D01*
X142246250Y-97222500D01*
X142260392Y-97236642D01*
X141919142Y-97577892D01*
X141905000Y-97563750D01*
X141890858Y-97577892D01*
X141549608Y-97236642D01*
X141563750Y-97222500D01*
X140919315Y-96578065D01*
X140723276Y-96662190D01*
X140598808Y-97157067D01*
X140673196Y-97661906D01*
X140723276Y-97782810D01*
X140919313Y-97866934D01*
X140809774Y-97976473D01*
X140820601Y-97987300D01*
X132989399Y-97987300D01*
X133000226Y-97976473D01*
X132890687Y-97866934D01*
X133086724Y-97782810D01*
X133211192Y-97287933D01*
X133136804Y-96783094D01*
X133086724Y-96662190D01*
X132890685Y-96578065D01*
X132246250Y-97222500D01*
X132260392Y-97236642D01*
X131919142Y-97577892D01*
X131905000Y-97563750D01*
X131890858Y-97577892D01*
X131549608Y-97236642D01*
X131563750Y-97222500D01*
X130919315Y-96578065D01*
X130723276Y-96662190D01*
X130598808Y-97157067D01*
X130673196Y-97661906D01*
X130723276Y-97782810D01*
X130919313Y-97866934D01*
X130809774Y-97976473D01*
X130820601Y-97987300D01*
X122989399Y-97987300D01*
X123000226Y-97976473D01*
X122890687Y-97866934D01*
X123086724Y-97782810D01*
X123211192Y-97287933D01*
X123136804Y-96783094D01*
X123086724Y-96662190D01*
X122890685Y-96578065D01*
X122246250Y-97222500D01*
X122260392Y-97236642D01*
X121919142Y-97577892D01*
X121905000Y-97563750D01*
X121890858Y-97577892D01*
X121549608Y-97236642D01*
X121563750Y-97222500D01*
X120919315Y-96578065D01*
X120723276Y-96662190D01*
X120598808Y-97157067D01*
X120673196Y-97661906D01*
X120723276Y-97782810D01*
X120919313Y-97866934D01*
X120809774Y-97976473D01*
X120820601Y-97987300D01*
X112989399Y-97987300D01*
X113000226Y-97976473D01*
X112890687Y-97866934D01*
X113086724Y-97782810D01*
X113211192Y-97287933D01*
X113136804Y-96783094D01*
X113086724Y-96662190D01*
X112890685Y-96578065D01*
X112246250Y-97222500D01*
X112260392Y-97236642D01*
X111919142Y-97577892D01*
X111905000Y-97563750D01*
X111890858Y-97577892D01*
X111549608Y-97236642D01*
X111563750Y-97222500D01*
X110919315Y-96578065D01*
X110723276Y-96662190D01*
X110598808Y-97157067D01*
X110673196Y-97661906D01*
X110723276Y-97782810D01*
X110919313Y-97866934D01*
X110809774Y-97976473D01*
X110820601Y-97987300D01*
X102989399Y-97987300D01*
X103000226Y-97976473D01*
X102890687Y-97866934D01*
X103086724Y-97782810D01*
X103211192Y-97287933D01*
X103136804Y-96783094D01*
X103086724Y-96662190D01*
X102890685Y-96578065D01*
X102246250Y-97222500D01*
X102260392Y-97236642D01*
X101919142Y-97577892D01*
X101905000Y-97563750D01*
X101890858Y-97577892D01*
X101549608Y-97236642D01*
X101563750Y-97222500D01*
X100919315Y-96578065D01*
X100723276Y-96662190D01*
X100598808Y-97157067D01*
X100673196Y-97661906D01*
X100723276Y-97782810D01*
X100919313Y-97866934D01*
X100809774Y-97976473D01*
X100820601Y-97987300D01*
X92012700Y-97987300D01*
X92012700Y-97410942D01*
X92303160Y-97639642D01*
X92524260Y-97731205D01*
X92758700Y-97655672D01*
X92758700Y-96511300D01*
X93241300Y-96511300D01*
X93241300Y-97655672D01*
X93475740Y-97731205D01*
X93696840Y-97639642D01*
X94167935Y-97268715D01*
X94461223Y-96745743D01*
X94387480Y-96511300D01*
X93241300Y-96511300D01*
X92758700Y-96511300D01*
X92738700Y-96511300D01*
X92738700Y-96236815D01*
X101260565Y-96236815D01*
X101905000Y-96881250D01*
X102549435Y-96236815D01*
X111260565Y-96236815D01*
X111905000Y-96881250D01*
X112549435Y-96236815D01*
X121260565Y-96236815D01*
X121905000Y-96881250D01*
X122549435Y-96236815D01*
X131260565Y-96236815D01*
X131905000Y-96881250D01*
X132549435Y-96236815D01*
X141260565Y-96236815D01*
X141905000Y-96881250D01*
X142549435Y-96236815D01*
X151260565Y-96236815D01*
X151905000Y-96881250D01*
X152549435Y-96236815D01*
X161260565Y-96236815D01*
X161905000Y-96881250D01*
X162549435Y-96236815D01*
X171260565Y-96236815D01*
X171905000Y-96881250D01*
X172549435Y-96236815D01*
X181260565Y-96236815D01*
X181905000Y-96881250D01*
X182549435Y-96236815D01*
X191260565Y-96236815D01*
X191905000Y-96881250D01*
X192549435Y-96236815D01*
X192465310Y-96040776D01*
X191970433Y-95916308D01*
X191465594Y-95990696D01*
X191344690Y-96040776D01*
X191260565Y-96236815D01*
X182549435Y-96236815D01*
X182465310Y-96040776D01*
X181970433Y-95916308D01*
X181465594Y-95990696D01*
X181344690Y-96040776D01*
X181260565Y-96236815D01*
X172549435Y-96236815D01*
X172465310Y-96040776D01*
X171970433Y-95916308D01*
X171465594Y-95990696D01*
X171344690Y-96040776D01*
X171260565Y-96236815D01*
X162549435Y-96236815D01*
X162465310Y-96040776D01*
X161970433Y-95916308D01*
X161465594Y-95990696D01*
X161344690Y-96040776D01*
X161260565Y-96236815D01*
X152549435Y-96236815D01*
X152465310Y-96040776D01*
X151970433Y-95916308D01*
X151465594Y-95990696D01*
X151344690Y-96040776D01*
X151260565Y-96236815D01*
X142549435Y-96236815D01*
X142465310Y-96040776D01*
X141970433Y-95916308D01*
X141465594Y-95990696D01*
X141344690Y-96040776D01*
X141260565Y-96236815D01*
X132549435Y-96236815D01*
X132465310Y-96040776D01*
X131970433Y-95916308D01*
X131465594Y-95990696D01*
X131344690Y-96040776D01*
X131260565Y-96236815D01*
X122549435Y-96236815D01*
X122465310Y-96040776D01*
X121970433Y-95916308D01*
X121465594Y-95990696D01*
X121344690Y-96040776D01*
X121260565Y-96236815D01*
X112549435Y-96236815D01*
X112465310Y-96040776D01*
X111970433Y-95916308D01*
X111465594Y-95990696D01*
X111344690Y-96040776D01*
X111260565Y-96236815D01*
X102549435Y-96236815D01*
X102465310Y-96040776D01*
X101970433Y-95916308D01*
X101465594Y-95990696D01*
X101344690Y-96040776D01*
X101260565Y-96236815D01*
X92738700Y-96236815D01*
X92738700Y-96028700D01*
X92758700Y-96028700D01*
X92758700Y-96008700D01*
X93241300Y-96008700D01*
X93241300Y-96028700D01*
X94387480Y-96028700D01*
X94461223Y-95794257D01*
X94167935Y-95271285D01*
X93823390Y-95000000D01*
X103912300Y-95000000D01*
X103995096Y-95416245D01*
X104230880Y-95769120D01*
X104583755Y-96004904D01*
X105000000Y-96087700D01*
X105416245Y-96004904D01*
X105769120Y-95769120D01*
X106004904Y-95416245D01*
X106087700Y-95000000D01*
X143912300Y-95000000D01*
X143995096Y-95416245D01*
X144230880Y-95769120D01*
X144583755Y-96004904D01*
X145000000Y-96087700D01*
X145416245Y-96004904D01*
X145769120Y-95769120D01*
X146004904Y-95416245D01*
X146087700Y-95000000D01*
X183912300Y-95000000D01*
X183995096Y-95416245D01*
X184230880Y-95769120D01*
X184583755Y-96004904D01*
X185000000Y-96087700D01*
X185416245Y-96004904D01*
X185769120Y-95769120D01*
X186004904Y-95416245D01*
X186087700Y-95000000D01*
X186004904Y-94583755D01*
X185769120Y-94230880D01*
X185416245Y-93995096D01*
X185000000Y-93912300D01*
X184583755Y-93995096D01*
X184230880Y-94230880D01*
X183995096Y-94583755D01*
X183912300Y-95000000D01*
X146087700Y-95000000D01*
X146004904Y-94583755D01*
X145769120Y-94230880D01*
X145416245Y-93995096D01*
X145000000Y-93912300D01*
X144583755Y-93995096D01*
X144230880Y-94230880D01*
X143995096Y-94583755D01*
X143912300Y-95000000D01*
X106087700Y-95000000D01*
X106004904Y-94583755D01*
X105769120Y-94230880D01*
X105416245Y-93995096D01*
X105000000Y-93912300D01*
X104583755Y-93995096D01*
X104230880Y-94230880D01*
X103995096Y-94583755D01*
X103912300Y-95000000D01*
X93823390Y-95000000D01*
X93776229Y-94962867D01*
X94016000Y-94962867D01*
X94094822Y-94948036D01*
X94167215Y-94901452D01*
X94215781Y-94830373D01*
X94232867Y-94746000D01*
X94232867Y-92714000D01*
X94218036Y-92635178D01*
X94171452Y-92562785D01*
X94100373Y-92514219D01*
X94016000Y-92497133D01*
X92012700Y-92497133D01*
X92012700Y-91012700D01*
X197987300Y-91012700D01*
X197987300Y-92497133D01*
M02*
