G04 #@! TF.FileFunction,Copper,L1,Top,Signal*
%FSLAX46Y46*%
G04 Gerber Fmt 4.6, Leading zero omitted, Abs format (unit mm)*
G04 Created by KiCad (PCBNEW 4.0.2-4+6225~38~ubuntu15.10.1-stable) date Sun 24 Apr 2016 11:14:38 PM EDT*
%MOMM*%
G01*
G04 APERTURE LIST*
%ADD10C,0.100000*%
%ADD11O,2.540000X6.350000*%
%ADD12C,1.524000*%
%ADD13R,2.032000X2.032000*%
%ADD14O,2.032000X2.032000*%
%ADD15C,0.750000*%
%ADD16C,0.025400*%
G04 APERTURE END LIST*
D10*
D11*
X108095000Y-95000000D03*
X111905000Y-95000000D03*
D12*
X111905000Y-97222500D03*
D11*
X118095000Y-95000000D03*
X121905000Y-95000000D03*
D12*
X121905000Y-97222500D03*
D11*
X128095000Y-95000000D03*
X131905000Y-95000000D03*
D12*
X131905000Y-97222500D03*
D11*
X138095000Y-95000000D03*
X141905000Y-95000000D03*
D12*
X141905000Y-97222500D03*
D11*
X148095000Y-95000000D03*
X151905000Y-95000000D03*
D12*
X151905000Y-97222500D03*
D11*
X168095000Y-95000000D03*
X171905000Y-95000000D03*
D12*
X171905000Y-97222500D03*
D11*
X158095000Y-95000000D03*
X161905000Y-95000000D03*
D12*
X161905000Y-97222500D03*
D11*
X188095000Y-95000000D03*
X191905000Y-95000000D03*
D12*
X191905000Y-97222500D03*
D11*
X178095000Y-95000000D03*
X181905000Y-95000000D03*
D12*
X181905000Y-97222500D03*
D11*
X98095000Y-95000000D03*
X101905000Y-95000000D03*
D12*
X101905000Y-97222500D03*
D13*
X93000000Y-93730000D03*
D14*
X93000000Y-96270000D03*
D13*
X197000000Y-93730000D03*
D14*
X197000000Y-96270000D03*
D15*
X188095000Y-95000000D02*
X188095000Y-91000000D01*
X188095000Y-91000000D02*
X188000000Y-91000000D01*
X178095000Y-95000000D02*
X178095000Y-91000000D01*
X178095000Y-91000000D02*
X178000000Y-91000000D01*
X168095000Y-95000000D02*
X168095000Y-91000000D01*
X168095000Y-91000000D02*
X168000000Y-91000000D01*
X158095000Y-95000000D02*
X158095000Y-91000000D01*
X158095000Y-91000000D02*
X158000000Y-91000000D01*
X148000000Y-91000000D02*
X148000000Y-94905000D01*
X148000000Y-94905000D02*
X148095000Y-95000000D01*
X138095000Y-95000000D02*
X138095000Y-91000000D01*
X138095000Y-91000000D02*
X138000000Y-91000000D01*
X128000000Y-91000000D02*
X128000000Y-94905000D01*
X128000000Y-94905000D02*
X128095000Y-95000000D01*
X118095000Y-95000000D02*
X118095000Y-91000000D01*
X118095000Y-91000000D02*
X118000000Y-91000000D01*
X108095000Y-95000000D02*
X108095000Y-91000000D01*
X108095000Y-91000000D02*
X108000000Y-91000000D01*
X98095000Y-95000000D02*
X98095000Y-91000000D01*
X98095000Y-91000000D02*
X98000000Y-91000000D01*
X93000000Y-93730000D02*
X93000000Y-93000000D01*
X93000000Y-93000000D02*
X95000000Y-91000000D01*
X95000000Y-91000000D02*
X98000000Y-91000000D01*
X98000000Y-91000000D02*
X108000000Y-91000000D01*
X108000000Y-91000000D02*
X118000000Y-91000000D01*
X118000000Y-91000000D02*
X128000000Y-91000000D01*
X128000000Y-91000000D02*
X138000000Y-91000000D01*
X138000000Y-91000000D02*
X148000000Y-91000000D01*
X148000000Y-91000000D02*
X158000000Y-91000000D01*
X158000000Y-91000000D02*
X168000000Y-91000000D01*
X168000000Y-91000000D02*
X178000000Y-91000000D01*
X178000000Y-91000000D02*
X188000000Y-91000000D01*
X188000000Y-91000000D02*
X194270000Y-91000000D01*
X194270000Y-91000000D02*
X197000000Y-93730000D01*
D16*
G36*
X197987300Y-92193300D02*
X197371475Y-92193300D01*
X197241300Y-92323475D01*
X197241300Y-93488700D01*
X197261300Y-93488700D01*
X197261300Y-93971300D01*
X197241300Y-93971300D01*
X197241300Y-93991300D01*
X196758700Y-93991300D01*
X196758700Y-93971300D01*
X195593475Y-93971300D01*
X195463300Y-94101475D01*
X195463300Y-94849574D01*
X195542572Y-95040953D01*
X195689047Y-95187428D01*
X195880427Y-95266700D01*
X196296412Y-95266700D01*
X196131178Y-95377106D01*
X195864829Y-95775725D01*
X195771300Y-96245928D01*
X195771300Y-96294072D01*
X195864829Y-96764275D01*
X196131178Y-97162894D01*
X196529797Y-97429243D01*
X197000000Y-97522772D01*
X197470203Y-97429243D01*
X197868822Y-97162894D01*
X197987300Y-96985579D01*
X197987300Y-97987300D01*
X192975140Y-97987300D01*
X193274836Y-97538774D01*
X193387700Y-96971369D01*
X193387700Y-93028631D01*
X193304514Y-92610426D01*
X195463300Y-92610426D01*
X195463300Y-93358525D01*
X195593475Y-93488700D01*
X196758700Y-93488700D01*
X196758700Y-92323475D01*
X196628525Y-92193300D01*
X195880427Y-92193300D01*
X195689047Y-92272572D01*
X195542572Y-92419047D01*
X195463300Y-92610426D01*
X193304514Y-92610426D01*
X193274836Y-92461226D01*
X192953427Y-91980204D01*
X192472405Y-91658795D01*
X191905000Y-91545931D01*
X191337595Y-91658795D01*
X190856573Y-91980204D01*
X190535164Y-92461226D01*
X190422300Y-93028631D01*
X190422300Y-96971369D01*
X190535164Y-97538774D01*
X190834860Y-97987300D01*
X189503431Y-97987300D01*
X189657050Y-97813203D01*
X189885700Y-97146300D01*
X189885700Y-95241300D01*
X188336300Y-95241300D01*
X188336300Y-95261300D01*
X187853700Y-95261300D01*
X187853700Y-95241300D01*
X186304300Y-95241300D01*
X186304300Y-97146300D01*
X186532950Y-97813203D01*
X186686569Y-97987300D01*
X182975140Y-97987300D01*
X183274836Y-97538774D01*
X183387700Y-96971369D01*
X183387700Y-95000000D01*
X183912300Y-95000000D01*
X183995096Y-95416245D01*
X184230880Y-95769120D01*
X184583755Y-96004904D01*
X185000000Y-96087700D01*
X185416245Y-96004904D01*
X185769120Y-95769120D01*
X186004904Y-95416245D01*
X186087700Y-95000000D01*
X186004904Y-94583755D01*
X185769120Y-94230880D01*
X185416245Y-93995096D01*
X185000000Y-93912300D01*
X184583755Y-93995096D01*
X184230880Y-94230880D01*
X183995096Y-94583755D01*
X183912300Y-95000000D01*
X183387700Y-95000000D01*
X183387700Y-93028631D01*
X183352905Y-92853700D01*
X186304300Y-92853700D01*
X186304300Y-94758700D01*
X187853700Y-94758700D01*
X187853700Y-91452101D01*
X188336300Y-91452101D01*
X188336300Y-94758700D01*
X189885700Y-94758700D01*
X189885700Y-92853700D01*
X189657050Y-92186797D01*
X189190592Y-91658159D01*
X188610902Y-91380225D01*
X188336300Y-91452101D01*
X187853700Y-91452101D01*
X187579098Y-91380225D01*
X186999408Y-91658159D01*
X186532950Y-92186797D01*
X186304300Y-92853700D01*
X183352905Y-92853700D01*
X183274836Y-92461226D01*
X182953427Y-91980204D01*
X182472405Y-91658795D01*
X181905000Y-91545931D01*
X181337595Y-91658795D01*
X180856573Y-91980204D01*
X180535164Y-92461226D01*
X180422300Y-93028631D01*
X180422300Y-96971369D01*
X180535164Y-97538774D01*
X180834860Y-97987300D01*
X179503431Y-97987300D01*
X179657050Y-97813203D01*
X179885700Y-97146300D01*
X179885700Y-95241300D01*
X178336300Y-95241300D01*
X178336300Y-95261300D01*
X177853700Y-95261300D01*
X177853700Y-95241300D01*
X176304300Y-95241300D01*
X176304300Y-97146300D01*
X176532950Y-97813203D01*
X176686569Y-97987300D01*
X172975140Y-97987300D01*
X173274836Y-97538774D01*
X173387700Y-96971369D01*
X173387700Y-93028631D01*
X173352905Y-92853700D01*
X176304300Y-92853700D01*
X176304300Y-94758700D01*
X177853700Y-94758700D01*
X177853700Y-91452101D01*
X178336300Y-91452101D01*
X178336300Y-94758700D01*
X179885700Y-94758700D01*
X179885700Y-92853700D01*
X179657050Y-92186797D01*
X179190592Y-91658159D01*
X178610902Y-91380225D01*
X178336300Y-91452101D01*
X177853700Y-91452101D01*
X177579098Y-91380225D01*
X176999408Y-91658159D01*
X176532950Y-92186797D01*
X176304300Y-92853700D01*
X173352905Y-92853700D01*
X173274836Y-92461226D01*
X172953427Y-91980204D01*
X172472405Y-91658795D01*
X171905000Y-91545931D01*
X171337595Y-91658795D01*
X170856573Y-91980204D01*
X170535164Y-92461226D01*
X170422300Y-93028631D01*
X170422300Y-96971369D01*
X170535164Y-97538774D01*
X170834860Y-97987300D01*
X169503431Y-97987300D01*
X169657050Y-97813203D01*
X169885700Y-97146300D01*
X169885700Y-95241300D01*
X168336300Y-95241300D01*
X168336300Y-95261300D01*
X167853700Y-95261300D01*
X167853700Y-95241300D01*
X166304300Y-95241300D01*
X166304300Y-97146300D01*
X166532950Y-97813203D01*
X166686569Y-97987300D01*
X162975140Y-97987300D01*
X163274836Y-97538774D01*
X163387700Y-96971369D01*
X163387700Y-93028631D01*
X163352905Y-92853700D01*
X166304300Y-92853700D01*
X166304300Y-94758700D01*
X167853700Y-94758700D01*
X167853700Y-91452101D01*
X168336300Y-91452101D01*
X168336300Y-94758700D01*
X169885700Y-94758700D01*
X169885700Y-92853700D01*
X169657050Y-92186797D01*
X169190592Y-91658159D01*
X168610902Y-91380225D01*
X168336300Y-91452101D01*
X167853700Y-91452101D01*
X167579098Y-91380225D01*
X166999408Y-91658159D01*
X166532950Y-92186797D01*
X166304300Y-92853700D01*
X163352905Y-92853700D01*
X163274836Y-92461226D01*
X162953427Y-91980204D01*
X162472405Y-91658795D01*
X161905000Y-91545931D01*
X161337595Y-91658795D01*
X160856573Y-91980204D01*
X160535164Y-92461226D01*
X160422300Y-93028631D01*
X160422300Y-96971369D01*
X160535164Y-97538774D01*
X160834860Y-97987300D01*
X159503431Y-97987300D01*
X159657050Y-97813203D01*
X159885700Y-97146300D01*
X159885700Y-95241300D01*
X158336300Y-95241300D01*
X158336300Y-95261300D01*
X157853700Y-95261300D01*
X157853700Y-95241300D01*
X156304300Y-95241300D01*
X156304300Y-97146300D01*
X156532950Y-97813203D01*
X156686569Y-97987300D01*
X152975140Y-97987300D01*
X153274836Y-97538774D01*
X153387700Y-96971369D01*
X153387700Y-93028631D01*
X153352905Y-92853700D01*
X156304300Y-92853700D01*
X156304300Y-94758700D01*
X157853700Y-94758700D01*
X157853700Y-91452101D01*
X158336300Y-91452101D01*
X158336300Y-94758700D01*
X159885700Y-94758700D01*
X159885700Y-92853700D01*
X159657050Y-92186797D01*
X159190592Y-91658159D01*
X158610902Y-91380225D01*
X158336300Y-91452101D01*
X157853700Y-91452101D01*
X157579098Y-91380225D01*
X156999408Y-91658159D01*
X156532950Y-92186797D01*
X156304300Y-92853700D01*
X153352905Y-92853700D01*
X153274836Y-92461226D01*
X152953427Y-91980204D01*
X152472405Y-91658795D01*
X151905000Y-91545931D01*
X151337595Y-91658795D01*
X150856573Y-91980204D01*
X150535164Y-92461226D01*
X150422300Y-93028631D01*
X150422300Y-96971369D01*
X150535164Y-97538774D01*
X150834860Y-97987300D01*
X149503431Y-97987300D01*
X149657050Y-97813203D01*
X149885700Y-97146300D01*
X149885700Y-95241300D01*
X148336300Y-95241300D01*
X148336300Y-95261300D01*
X147853700Y-95261300D01*
X147853700Y-95241300D01*
X146304300Y-95241300D01*
X146304300Y-97146300D01*
X146532950Y-97813203D01*
X146686569Y-97987300D01*
X142975140Y-97987300D01*
X143274836Y-97538774D01*
X143387700Y-96971369D01*
X143387700Y-95000000D01*
X143912300Y-95000000D01*
X143995096Y-95416245D01*
X144230880Y-95769120D01*
X144583755Y-96004904D01*
X145000000Y-96087700D01*
X145416245Y-96004904D01*
X145769120Y-95769120D01*
X146004904Y-95416245D01*
X146087700Y-95000000D01*
X146004904Y-94583755D01*
X145769120Y-94230880D01*
X145416245Y-93995096D01*
X145000000Y-93912300D01*
X144583755Y-93995096D01*
X144230880Y-94230880D01*
X143995096Y-94583755D01*
X143912300Y-95000000D01*
X143387700Y-95000000D01*
X143387700Y-93028631D01*
X143352905Y-92853700D01*
X146304300Y-92853700D01*
X146304300Y-94758700D01*
X147853700Y-94758700D01*
X147853700Y-91452101D01*
X148336300Y-91452101D01*
X148336300Y-94758700D01*
X149885700Y-94758700D01*
X149885700Y-92853700D01*
X149657050Y-92186797D01*
X149190592Y-91658159D01*
X148610902Y-91380225D01*
X148336300Y-91452101D01*
X147853700Y-91452101D01*
X147579098Y-91380225D01*
X146999408Y-91658159D01*
X146532950Y-92186797D01*
X146304300Y-92853700D01*
X143352905Y-92853700D01*
X143274836Y-92461226D01*
X142953427Y-91980204D01*
X142472405Y-91658795D01*
X141905000Y-91545931D01*
X141337595Y-91658795D01*
X140856573Y-91980204D01*
X140535164Y-92461226D01*
X140422300Y-93028631D01*
X140422300Y-96971369D01*
X140535164Y-97538774D01*
X140834860Y-97987300D01*
X139503431Y-97987300D01*
X139657050Y-97813203D01*
X139885700Y-97146300D01*
X139885700Y-95241300D01*
X138336300Y-95241300D01*
X138336300Y-95261300D01*
X137853700Y-95261300D01*
X137853700Y-95241300D01*
X136304300Y-95241300D01*
X136304300Y-97146300D01*
X136532950Y-97813203D01*
X136686569Y-97987300D01*
X132975140Y-97987300D01*
X133274836Y-97538774D01*
X133387700Y-96971369D01*
X133387700Y-93028631D01*
X133352905Y-92853700D01*
X136304300Y-92853700D01*
X136304300Y-94758700D01*
X137853700Y-94758700D01*
X137853700Y-91452101D01*
X138336300Y-91452101D01*
X138336300Y-94758700D01*
X139885700Y-94758700D01*
X139885700Y-92853700D01*
X139657050Y-92186797D01*
X139190592Y-91658159D01*
X138610902Y-91380225D01*
X138336300Y-91452101D01*
X137853700Y-91452101D01*
X137579098Y-91380225D01*
X136999408Y-91658159D01*
X136532950Y-92186797D01*
X136304300Y-92853700D01*
X133352905Y-92853700D01*
X133274836Y-92461226D01*
X132953427Y-91980204D01*
X132472405Y-91658795D01*
X131905000Y-91545931D01*
X131337595Y-91658795D01*
X130856573Y-91980204D01*
X130535164Y-92461226D01*
X130422300Y-93028631D01*
X130422300Y-96971369D01*
X130535164Y-97538774D01*
X130834860Y-97987300D01*
X129503431Y-97987300D01*
X129657050Y-97813203D01*
X129885700Y-97146300D01*
X129885700Y-95241300D01*
X128336300Y-95241300D01*
X128336300Y-95261300D01*
X127853700Y-95261300D01*
X127853700Y-95241300D01*
X126304300Y-95241300D01*
X126304300Y-97146300D01*
X126532950Y-97813203D01*
X126686569Y-97987300D01*
X122975140Y-97987300D01*
X123274836Y-97538774D01*
X123387700Y-96971369D01*
X123387700Y-93028631D01*
X123352905Y-92853700D01*
X126304300Y-92853700D01*
X126304300Y-94758700D01*
X127853700Y-94758700D01*
X127853700Y-91452101D01*
X128336300Y-91452101D01*
X128336300Y-94758700D01*
X129885700Y-94758700D01*
X129885700Y-92853700D01*
X129657050Y-92186797D01*
X129190592Y-91658159D01*
X128610902Y-91380225D01*
X128336300Y-91452101D01*
X127853700Y-91452101D01*
X127579098Y-91380225D01*
X126999408Y-91658159D01*
X126532950Y-92186797D01*
X126304300Y-92853700D01*
X123352905Y-92853700D01*
X123274836Y-92461226D01*
X122953427Y-91980204D01*
X122472405Y-91658795D01*
X121905000Y-91545931D01*
X121337595Y-91658795D01*
X120856573Y-91980204D01*
X120535164Y-92461226D01*
X120422300Y-93028631D01*
X120422300Y-96971369D01*
X120535164Y-97538774D01*
X120834860Y-97987300D01*
X119503431Y-97987300D01*
X119657050Y-97813203D01*
X119885700Y-97146300D01*
X119885700Y-95241300D01*
X118336300Y-95241300D01*
X118336300Y-95261300D01*
X117853700Y-95261300D01*
X117853700Y-95241300D01*
X116304300Y-95241300D01*
X116304300Y-97146300D01*
X116532950Y-97813203D01*
X116686569Y-97987300D01*
X112975140Y-97987300D01*
X113274836Y-97538774D01*
X113387700Y-96971369D01*
X113387700Y-93028631D01*
X113352905Y-92853700D01*
X116304300Y-92853700D01*
X116304300Y-94758700D01*
X117853700Y-94758700D01*
X117853700Y-91452101D01*
X118336300Y-91452101D01*
X118336300Y-94758700D01*
X119885700Y-94758700D01*
X119885700Y-92853700D01*
X119657050Y-92186797D01*
X119190592Y-91658159D01*
X118610902Y-91380225D01*
X118336300Y-91452101D01*
X117853700Y-91452101D01*
X117579098Y-91380225D01*
X116999408Y-91658159D01*
X116532950Y-92186797D01*
X116304300Y-92853700D01*
X113352905Y-92853700D01*
X113274836Y-92461226D01*
X112953427Y-91980204D01*
X112472405Y-91658795D01*
X111905000Y-91545931D01*
X111337595Y-91658795D01*
X110856573Y-91980204D01*
X110535164Y-92461226D01*
X110422300Y-93028631D01*
X110422300Y-96971369D01*
X110535164Y-97538774D01*
X110834860Y-97987300D01*
X109503431Y-97987300D01*
X109657050Y-97813203D01*
X109885700Y-97146300D01*
X109885700Y-95241300D01*
X108336300Y-95241300D01*
X108336300Y-95261300D01*
X107853700Y-95261300D01*
X107853700Y-95241300D01*
X106304300Y-95241300D01*
X106304300Y-97146300D01*
X106532950Y-97813203D01*
X106686569Y-97987300D01*
X102975140Y-97987300D01*
X103274836Y-97538774D01*
X103387700Y-96971369D01*
X103387700Y-95000000D01*
X103912300Y-95000000D01*
X103995096Y-95416245D01*
X104230880Y-95769120D01*
X104583755Y-96004904D01*
X105000000Y-96087700D01*
X105416245Y-96004904D01*
X105769120Y-95769120D01*
X106004904Y-95416245D01*
X106087700Y-95000000D01*
X106004904Y-94583755D01*
X105769120Y-94230880D01*
X105416245Y-93995096D01*
X105000000Y-93912300D01*
X104583755Y-93995096D01*
X104230880Y-94230880D01*
X103995096Y-94583755D01*
X103912300Y-95000000D01*
X103387700Y-95000000D01*
X103387700Y-93028631D01*
X103352905Y-92853700D01*
X106304300Y-92853700D01*
X106304300Y-94758700D01*
X107853700Y-94758700D01*
X107853700Y-91452101D01*
X108336300Y-91452101D01*
X108336300Y-94758700D01*
X109885700Y-94758700D01*
X109885700Y-92853700D01*
X109657050Y-92186797D01*
X109190592Y-91658159D01*
X108610902Y-91380225D01*
X108336300Y-91452101D01*
X107853700Y-91452101D01*
X107579098Y-91380225D01*
X106999408Y-91658159D01*
X106532950Y-92186797D01*
X106304300Y-92853700D01*
X103352905Y-92853700D01*
X103274836Y-92461226D01*
X102953427Y-91980204D01*
X102472405Y-91658795D01*
X101905000Y-91545931D01*
X101337595Y-91658795D01*
X100856573Y-91980204D01*
X100535164Y-92461226D01*
X100422300Y-93028631D01*
X100422300Y-96971369D01*
X100535164Y-97538774D01*
X100834860Y-97987300D01*
X99503431Y-97987300D01*
X99657050Y-97813203D01*
X99885700Y-97146300D01*
X99885700Y-95241300D01*
X98336300Y-95241300D01*
X98336300Y-95261300D01*
X97853700Y-95261300D01*
X97853700Y-95241300D01*
X96304300Y-95241300D01*
X96304300Y-97146300D01*
X96532950Y-97813203D01*
X96686569Y-97987300D01*
X92012700Y-97987300D01*
X92012700Y-96985579D01*
X92131178Y-97162894D01*
X92529797Y-97429243D01*
X93000000Y-97522772D01*
X93470203Y-97429243D01*
X93868822Y-97162894D01*
X94135171Y-96764275D01*
X94228700Y-96294072D01*
X94228700Y-96245928D01*
X94135171Y-95775725D01*
X93868822Y-95377106D01*
X93703588Y-95266700D01*
X94119573Y-95266700D01*
X94310953Y-95187428D01*
X94457428Y-95040953D01*
X94536700Y-94849574D01*
X94536700Y-94101475D01*
X94406525Y-93971300D01*
X93241300Y-93971300D01*
X93241300Y-93991300D01*
X92758700Y-93991300D01*
X92758700Y-93971300D01*
X92738700Y-93971300D01*
X92738700Y-93488700D01*
X92758700Y-93488700D01*
X92758700Y-92323475D01*
X93241300Y-92323475D01*
X93241300Y-93488700D01*
X94406525Y-93488700D01*
X94536700Y-93358525D01*
X94536700Y-92853700D01*
X96304300Y-92853700D01*
X96304300Y-94758700D01*
X97853700Y-94758700D01*
X97853700Y-91452101D01*
X98336300Y-91452101D01*
X98336300Y-94758700D01*
X99885700Y-94758700D01*
X99885700Y-92853700D01*
X99657050Y-92186797D01*
X99190592Y-91658159D01*
X98610902Y-91380225D01*
X98336300Y-91452101D01*
X97853700Y-91452101D01*
X97579098Y-91380225D01*
X96999408Y-91658159D01*
X96532950Y-92186797D01*
X96304300Y-92853700D01*
X94536700Y-92853700D01*
X94536700Y-92610426D01*
X94457428Y-92419047D01*
X94310953Y-92272572D01*
X94119573Y-92193300D01*
X93371475Y-92193300D01*
X93241300Y-92323475D01*
X92758700Y-92323475D01*
X92628525Y-92193300D01*
X92012700Y-92193300D01*
X92012700Y-91012700D01*
X197987300Y-91012700D01*
X197987300Y-92193300D01*
X197987300Y-92193300D01*
G37*
X197987300Y-92193300D02*
X197371475Y-92193300D01*
X197241300Y-92323475D01*
X197241300Y-93488700D01*
X197261300Y-93488700D01*
X197261300Y-93971300D01*
X197241300Y-93971300D01*
X197241300Y-93991300D01*
X196758700Y-93991300D01*
X196758700Y-93971300D01*
X195593475Y-93971300D01*
X195463300Y-94101475D01*
X195463300Y-94849574D01*
X195542572Y-95040953D01*
X195689047Y-95187428D01*
X195880427Y-95266700D01*
X196296412Y-95266700D01*
X196131178Y-95377106D01*
X195864829Y-95775725D01*
X195771300Y-96245928D01*
X195771300Y-96294072D01*
X195864829Y-96764275D01*
X196131178Y-97162894D01*
X196529797Y-97429243D01*
X197000000Y-97522772D01*
X197470203Y-97429243D01*
X197868822Y-97162894D01*
X197987300Y-96985579D01*
X197987300Y-97987300D01*
X192975140Y-97987300D01*
X193274836Y-97538774D01*
X193387700Y-96971369D01*
X193387700Y-93028631D01*
X193304514Y-92610426D01*
X195463300Y-92610426D01*
X195463300Y-93358525D01*
X195593475Y-93488700D01*
X196758700Y-93488700D01*
X196758700Y-92323475D01*
X196628525Y-92193300D01*
X195880427Y-92193300D01*
X195689047Y-92272572D01*
X195542572Y-92419047D01*
X195463300Y-92610426D01*
X193304514Y-92610426D01*
X193274836Y-92461226D01*
X192953427Y-91980204D01*
X192472405Y-91658795D01*
X191905000Y-91545931D01*
X191337595Y-91658795D01*
X190856573Y-91980204D01*
X190535164Y-92461226D01*
X190422300Y-93028631D01*
X190422300Y-96971369D01*
X190535164Y-97538774D01*
X190834860Y-97987300D01*
X189503431Y-97987300D01*
X189657050Y-97813203D01*
X189885700Y-97146300D01*
X189885700Y-95241300D01*
X188336300Y-95241300D01*
X188336300Y-95261300D01*
X187853700Y-95261300D01*
X187853700Y-95241300D01*
X186304300Y-95241300D01*
X186304300Y-97146300D01*
X186532950Y-97813203D01*
X186686569Y-97987300D01*
X182975140Y-97987300D01*
X183274836Y-97538774D01*
X183387700Y-96971369D01*
X183387700Y-95000000D01*
X183912300Y-95000000D01*
X183995096Y-95416245D01*
X184230880Y-95769120D01*
X184583755Y-96004904D01*
X185000000Y-96087700D01*
X185416245Y-96004904D01*
X185769120Y-95769120D01*
X186004904Y-95416245D01*
X186087700Y-95000000D01*
X186004904Y-94583755D01*
X185769120Y-94230880D01*
X185416245Y-93995096D01*
X185000000Y-93912300D01*
X184583755Y-93995096D01*
X184230880Y-94230880D01*
X183995096Y-94583755D01*
X183912300Y-95000000D01*
X183387700Y-95000000D01*
X183387700Y-93028631D01*
X183352905Y-92853700D01*
X186304300Y-92853700D01*
X186304300Y-94758700D01*
X187853700Y-94758700D01*
X187853700Y-91452101D01*
X188336300Y-91452101D01*
X188336300Y-94758700D01*
X189885700Y-94758700D01*
X189885700Y-92853700D01*
X189657050Y-92186797D01*
X189190592Y-91658159D01*
X188610902Y-91380225D01*
X188336300Y-91452101D01*
X187853700Y-91452101D01*
X187579098Y-91380225D01*
X186999408Y-91658159D01*
X186532950Y-92186797D01*
X186304300Y-92853700D01*
X183352905Y-92853700D01*
X183274836Y-92461226D01*
X182953427Y-91980204D01*
X182472405Y-91658795D01*
X181905000Y-91545931D01*
X181337595Y-91658795D01*
X180856573Y-91980204D01*
X180535164Y-92461226D01*
X180422300Y-93028631D01*
X180422300Y-96971369D01*
X180535164Y-97538774D01*
X180834860Y-97987300D01*
X179503431Y-97987300D01*
X179657050Y-97813203D01*
X179885700Y-97146300D01*
X179885700Y-95241300D01*
X178336300Y-95241300D01*
X178336300Y-95261300D01*
X177853700Y-95261300D01*
X177853700Y-95241300D01*
X176304300Y-95241300D01*
X176304300Y-97146300D01*
X176532950Y-97813203D01*
X176686569Y-97987300D01*
X172975140Y-97987300D01*
X173274836Y-97538774D01*
X173387700Y-96971369D01*
X173387700Y-93028631D01*
X173352905Y-92853700D01*
X176304300Y-92853700D01*
X176304300Y-94758700D01*
X177853700Y-94758700D01*
X177853700Y-91452101D01*
X178336300Y-91452101D01*
X178336300Y-94758700D01*
X179885700Y-94758700D01*
X179885700Y-92853700D01*
X179657050Y-92186797D01*
X179190592Y-91658159D01*
X178610902Y-91380225D01*
X178336300Y-91452101D01*
X177853700Y-91452101D01*
X177579098Y-91380225D01*
X176999408Y-91658159D01*
X176532950Y-92186797D01*
X176304300Y-92853700D01*
X173352905Y-92853700D01*
X173274836Y-92461226D01*
X172953427Y-91980204D01*
X172472405Y-91658795D01*
X171905000Y-91545931D01*
X171337595Y-91658795D01*
X170856573Y-91980204D01*
X170535164Y-92461226D01*
X170422300Y-93028631D01*
X170422300Y-96971369D01*
X170535164Y-97538774D01*
X170834860Y-97987300D01*
X169503431Y-97987300D01*
X169657050Y-97813203D01*
X169885700Y-97146300D01*
X169885700Y-95241300D01*
X168336300Y-95241300D01*
X168336300Y-95261300D01*
X167853700Y-95261300D01*
X167853700Y-95241300D01*
X166304300Y-95241300D01*
X166304300Y-97146300D01*
X166532950Y-97813203D01*
X166686569Y-97987300D01*
X162975140Y-97987300D01*
X163274836Y-97538774D01*
X163387700Y-96971369D01*
X163387700Y-93028631D01*
X163352905Y-92853700D01*
X166304300Y-92853700D01*
X166304300Y-94758700D01*
X167853700Y-94758700D01*
X167853700Y-91452101D01*
X168336300Y-91452101D01*
X168336300Y-94758700D01*
X169885700Y-94758700D01*
X169885700Y-92853700D01*
X169657050Y-92186797D01*
X169190592Y-91658159D01*
X168610902Y-91380225D01*
X168336300Y-91452101D01*
X167853700Y-91452101D01*
X167579098Y-91380225D01*
X166999408Y-91658159D01*
X166532950Y-92186797D01*
X166304300Y-92853700D01*
X163352905Y-92853700D01*
X163274836Y-92461226D01*
X162953427Y-91980204D01*
X162472405Y-91658795D01*
X161905000Y-91545931D01*
X161337595Y-91658795D01*
X160856573Y-91980204D01*
X160535164Y-92461226D01*
X160422300Y-93028631D01*
X160422300Y-96971369D01*
X160535164Y-97538774D01*
X160834860Y-97987300D01*
X159503431Y-97987300D01*
X159657050Y-97813203D01*
X159885700Y-97146300D01*
X159885700Y-95241300D01*
X158336300Y-95241300D01*
X158336300Y-95261300D01*
X157853700Y-95261300D01*
X157853700Y-95241300D01*
X156304300Y-95241300D01*
X156304300Y-97146300D01*
X156532950Y-97813203D01*
X156686569Y-97987300D01*
X152975140Y-97987300D01*
X153274836Y-97538774D01*
X153387700Y-96971369D01*
X153387700Y-93028631D01*
X153352905Y-92853700D01*
X156304300Y-92853700D01*
X156304300Y-94758700D01*
X157853700Y-94758700D01*
X157853700Y-91452101D01*
X158336300Y-91452101D01*
X158336300Y-94758700D01*
X159885700Y-94758700D01*
X159885700Y-92853700D01*
X159657050Y-92186797D01*
X159190592Y-91658159D01*
X158610902Y-91380225D01*
X158336300Y-91452101D01*
X157853700Y-91452101D01*
X157579098Y-91380225D01*
X156999408Y-91658159D01*
X156532950Y-92186797D01*
X156304300Y-92853700D01*
X153352905Y-92853700D01*
X153274836Y-92461226D01*
X152953427Y-91980204D01*
X152472405Y-91658795D01*
X151905000Y-91545931D01*
X151337595Y-91658795D01*
X150856573Y-91980204D01*
X150535164Y-92461226D01*
X150422300Y-93028631D01*
X150422300Y-96971369D01*
X150535164Y-97538774D01*
X150834860Y-97987300D01*
X149503431Y-97987300D01*
X149657050Y-97813203D01*
X149885700Y-97146300D01*
X149885700Y-95241300D01*
X148336300Y-95241300D01*
X148336300Y-95261300D01*
X147853700Y-95261300D01*
X147853700Y-95241300D01*
X146304300Y-95241300D01*
X146304300Y-97146300D01*
X146532950Y-97813203D01*
X146686569Y-97987300D01*
X142975140Y-97987300D01*
X143274836Y-97538774D01*
X143387700Y-96971369D01*
X143387700Y-95000000D01*
X143912300Y-95000000D01*
X143995096Y-95416245D01*
X144230880Y-95769120D01*
X144583755Y-96004904D01*
X145000000Y-96087700D01*
X145416245Y-96004904D01*
X145769120Y-95769120D01*
X146004904Y-95416245D01*
X146087700Y-95000000D01*
X146004904Y-94583755D01*
X145769120Y-94230880D01*
X145416245Y-93995096D01*
X145000000Y-93912300D01*
X144583755Y-93995096D01*
X144230880Y-94230880D01*
X143995096Y-94583755D01*
X143912300Y-95000000D01*
X143387700Y-95000000D01*
X143387700Y-93028631D01*
X143352905Y-92853700D01*
X146304300Y-92853700D01*
X146304300Y-94758700D01*
X147853700Y-94758700D01*
X147853700Y-91452101D01*
X148336300Y-91452101D01*
X148336300Y-94758700D01*
X149885700Y-94758700D01*
X149885700Y-92853700D01*
X149657050Y-92186797D01*
X149190592Y-91658159D01*
X148610902Y-91380225D01*
X148336300Y-91452101D01*
X147853700Y-91452101D01*
X147579098Y-91380225D01*
X146999408Y-91658159D01*
X146532950Y-92186797D01*
X146304300Y-92853700D01*
X143352905Y-92853700D01*
X143274836Y-92461226D01*
X142953427Y-91980204D01*
X142472405Y-91658795D01*
X141905000Y-91545931D01*
X141337595Y-91658795D01*
X140856573Y-91980204D01*
X140535164Y-92461226D01*
X140422300Y-93028631D01*
X140422300Y-96971369D01*
X140535164Y-97538774D01*
X140834860Y-97987300D01*
X139503431Y-97987300D01*
X139657050Y-97813203D01*
X139885700Y-97146300D01*
X139885700Y-95241300D01*
X138336300Y-95241300D01*
X138336300Y-95261300D01*
X137853700Y-95261300D01*
X137853700Y-95241300D01*
X136304300Y-95241300D01*
X136304300Y-97146300D01*
X136532950Y-97813203D01*
X136686569Y-97987300D01*
X132975140Y-97987300D01*
X133274836Y-97538774D01*
X133387700Y-96971369D01*
X133387700Y-93028631D01*
X133352905Y-92853700D01*
X136304300Y-92853700D01*
X136304300Y-94758700D01*
X137853700Y-94758700D01*
X137853700Y-91452101D01*
X138336300Y-91452101D01*
X138336300Y-94758700D01*
X139885700Y-94758700D01*
X139885700Y-92853700D01*
X139657050Y-92186797D01*
X139190592Y-91658159D01*
X138610902Y-91380225D01*
X138336300Y-91452101D01*
X137853700Y-91452101D01*
X137579098Y-91380225D01*
X136999408Y-91658159D01*
X136532950Y-92186797D01*
X136304300Y-92853700D01*
X133352905Y-92853700D01*
X133274836Y-92461226D01*
X132953427Y-91980204D01*
X132472405Y-91658795D01*
X131905000Y-91545931D01*
X131337595Y-91658795D01*
X130856573Y-91980204D01*
X130535164Y-92461226D01*
X130422300Y-93028631D01*
X130422300Y-96971369D01*
X130535164Y-97538774D01*
X130834860Y-97987300D01*
X129503431Y-97987300D01*
X129657050Y-97813203D01*
X129885700Y-97146300D01*
X129885700Y-95241300D01*
X128336300Y-95241300D01*
X128336300Y-95261300D01*
X127853700Y-95261300D01*
X127853700Y-95241300D01*
X126304300Y-95241300D01*
X126304300Y-97146300D01*
X126532950Y-97813203D01*
X126686569Y-97987300D01*
X122975140Y-97987300D01*
X123274836Y-97538774D01*
X123387700Y-96971369D01*
X123387700Y-93028631D01*
X123352905Y-92853700D01*
X126304300Y-92853700D01*
X126304300Y-94758700D01*
X127853700Y-94758700D01*
X127853700Y-91452101D01*
X128336300Y-91452101D01*
X128336300Y-94758700D01*
X129885700Y-94758700D01*
X129885700Y-92853700D01*
X129657050Y-92186797D01*
X129190592Y-91658159D01*
X128610902Y-91380225D01*
X128336300Y-91452101D01*
X127853700Y-91452101D01*
X127579098Y-91380225D01*
X126999408Y-91658159D01*
X126532950Y-92186797D01*
X126304300Y-92853700D01*
X123352905Y-92853700D01*
X123274836Y-92461226D01*
X122953427Y-91980204D01*
X122472405Y-91658795D01*
X121905000Y-91545931D01*
X121337595Y-91658795D01*
X120856573Y-91980204D01*
X120535164Y-92461226D01*
X120422300Y-93028631D01*
X120422300Y-96971369D01*
X120535164Y-97538774D01*
X120834860Y-97987300D01*
X119503431Y-97987300D01*
X119657050Y-97813203D01*
X119885700Y-97146300D01*
X119885700Y-95241300D01*
X118336300Y-95241300D01*
X118336300Y-95261300D01*
X117853700Y-95261300D01*
X117853700Y-95241300D01*
X116304300Y-95241300D01*
X116304300Y-97146300D01*
X116532950Y-97813203D01*
X116686569Y-97987300D01*
X112975140Y-97987300D01*
X113274836Y-97538774D01*
X113387700Y-96971369D01*
X113387700Y-93028631D01*
X113352905Y-92853700D01*
X116304300Y-92853700D01*
X116304300Y-94758700D01*
X117853700Y-94758700D01*
X117853700Y-91452101D01*
X118336300Y-91452101D01*
X118336300Y-94758700D01*
X119885700Y-94758700D01*
X119885700Y-92853700D01*
X119657050Y-92186797D01*
X119190592Y-91658159D01*
X118610902Y-91380225D01*
X118336300Y-91452101D01*
X117853700Y-91452101D01*
X117579098Y-91380225D01*
X116999408Y-91658159D01*
X116532950Y-92186797D01*
X116304300Y-92853700D01*
X113352905Y-92853700D01*
X113274836Y-92461226D01*
X112953427Y-91980204D01*
X112472405Y-91658795D01*
X111905000Y-91545931D01*
X111337595Y-91658795D01*
X110856573Y-91980204D01*
X110535164Y-92461226D01*
X110422300Y-93028631D01*
X110422300Y-96971369D01*
X110535164Y-97538774D01*
X110834860Y-97987300D01*
X109503431Y-97987300D01*
X109657050Y-97813203D01*
X109885700Y-97146300D01*
X109885700Y-95241300D01*
X108336300Y-95241300D01*
X108336300Y-95261300D01*
X107853700Y-95261300D01*
X107853700Y-95241300D01*
X106304300Y-95241300D01*
X106304300Y-97146300D01*
X106532950Y-97813203D01*
X106686569Y-97987300D01*
X102975140Y-97987300D01*
X103274836Y-97538774D01*
X103387700Y-96971369D01*
X103387700Y-95000000D01*
X103912300Y-95000000D01*
X103995096Y-95416245D01*
X104230880Y-95769120D01*
X104583755Y-96004904D01*
X105000000Y-96087700D01*
X105416245Y-96004904D01*
X105769120Y-95769120D01*
X106004904Y-95416245D01*
X106087700Y-95000000D01*
X106004904Y-94583755D01*
X105769120Y-94230880D01*
X105416245Y-93995096D01*
X105000000Y-93912300D01*
X104583755Y-93995096D01*
X104230880Y-94230880D01*
X103995096Y-94583755D01*
X103912300Y-95000000D01*
X103387700Y-95000000D01*
X103387700Y-93028631D01*
X103352905Y-92853700D01*
X106304300Y-92853700D01*
X106304300Y-94758700D01*
X107853700Y-94758700D01*
X107853700Y-91452101D01*
X108336300Y-91452101D01*
X108336300Y-94758700D01*
X109885700Y-94758700D01*
X109885700Y-92853700D01*
X109657050Y-92186797D01*
X109190592Y-91658159D01*
X108610902Y-91380225D01*
X108336300Y-91452101D01*
X107853700Y-91452101D01*
X107579098Y-91380225D01*
X106999408Y-91658159D01*
X106532950Y-92186797D01*
X106304300Y-92853700D01*
X103352905Y-92853700D01*
X103274836Y-92461226D01*
X102953427Y-91980204D01*
X102472405Y-91658795D01*
X101905000Y-91545931D01*
X101337595Y-91658795D01*
X100856573Y-91980204D01*
X100535164Y-92461226D01*
X100422300Y-93028631D01*
X100422300Y-96971369D01*
X100535164Y-97538774D01*
X100834860Y-97987300D01*
X99503431Y-97987300D01*
X99657050Y-97813203D01*
X99885700Y-97146300D01*
X99885700Y-95241300D01*
X98336300Y-95241300D01*
X98336300Y-95261300D01*
X97853700Y-95261300D01*
X97853700Y-95241300D01*
X96304300Y-95241300D01*
X96304300Y-97146300D01*
X96532950Y-97813203D01*
X96686569Y-97987300D01*
X92012700Y-97987300D01*
X92012700Y-96985579D01*
X92131178Y-97162894D01*
X92529797Y-97429243D01*
X93000000Y-97522772D01*
X93470203Y-97429243D01*
X93868822Y-97162894D01*
X94135171Y-96764275D01*
X94228700Y-96294072D01*
X94228700Y-96245928D01*
X94135171Y-95775725D01*
X93868822Y-95377106D01*
X93703588Y-95266700D01*
X94119573Y-95266700D01*
X94310953Y-95187428D01*
X94457428Y-95040953D01*
X94536700Y-94849574D01*
X94536700Y-94101475D01*
X94406525Y-93971300D01*
X93241300Y-93971300D01*
X93241300Y-93991300D01*
X92758700Y-93991300D01*
X92758700Y-93971300D01*
X92738700Y-93971300D01*
X92738700Y-93488700D01*
X92758700Y-93488700D01*
X92758700Y-92323475D01*
X93241300Y-92323475D01*
X93241300Y-93488700D01*
X94406525Y-93488700D01*
X94536700Y-93358525D01*
X94536700Y-92853700D01*
X96304300Y-92853700D01*
X96304300Y-94758700D01*
X97853700Y-94758700D01*
X97853700Y-91452101D01*
X98336300Y-91452101D01*
X98336300Y-94758700D01*
X99885700Y-94758700D01*
X99885700Y-92853700D01*
X99657050Y-92186797D01*
X99190592Y-91658159D01*
X98610902Y-91380225D01*
X98336300Y-91452101D01*
X97853700Y-91452101D01*
X97579098Y-91380225D01*
X96999408Y-91658159D01*
X96532950Y-92186797D01*
X96304300Y-92853700D01*
X94536700Y-92853700D01*
X94536700Y-92610426D01*
X94457428Y-92419047D01*
X94310953Y-92272572D01*
X94119573Y-92193300D01*
X93371475Y-92193300D01*
X93241300Y-92323475D01*
X92758700Y-92323475D01*
X92628525Y-92193300D01*
X92012700Y-92193300D01*
X92012700Y-91012700D01*
X197987300Y-91012700D01*
X197987300Y-92193300D01*
M02*
